# Blender v2.79 (sub 0) OBJ File: ''
# www.blender.org
mtllib untitled.mtl
o Cube
v 0.086997 1.006887 0.188621
v 0.918319 -1.000000 0.202633
v 0.086997 3.006887 0.517424
v 0.086997 1.006887 0.517424
v -0.224127 3.006887 0.188621
v -0.224127 1.006887 0.188621
v -0.224127 3.006887 0.517424
v -0.224127 1.006887 0.517424
v 0.213497 4.247945 -0.291330
v 0.213497 3.008451 -0.291330
v 0.213497 4.247945 0.948165
v 0.213497 3.008451 0.948165
v -0.342938 4.247945 -0.291330
v -0.342938 3.008451 -0.291330
v -0.342938 4.247945 0.948165
v -0.342938 3.008451 0.948165
v -0.238195 -0.098332 0.522955
v -0.238195 0.872003 0.522955
v -0.238195 -0.098332 -0.447380
v -0.238195 0.872003 -0.447380
v 0.096675 -0.098332 0.522955
v 0.096675 0.872003 0.522955
v 0.096675 -0.098332 -0.447380
v 0.096675 0.872003 -0.447380
v 0.188450 4.247945 0.948165
v 0.086997 3.006887 0.188621
v -0.238195 -0.098332 0.186203
v -0.238195 0.872003 0.186203
v 0.096675 -0.098332 0.186203
v 0.096675 0.872003 0.186203
v 0.096675 1.008041 0.186203
v 0.096675 1.008041 0.522955
v -0.238195 1.008041 0.522955
v -0.238195 1.008041 0.186203
v 0.086997 3.006887 0.517424
v -0.224127 3.006887 0.517424
v -0.224127 1.006887 0.517424
v 0.086997 1.006887 0.517424
v 0.096675 0.872003 0.186203
v 0.096675 0.872003 0.522955
v 0.096675 1.008041 0.186203
v 0.096675 1.008041 0.522955
v 0.096675 0.872003 0.186203
v 0.096675 0.872003 0.522955
v 0.096675 1.008041 0.186203
v 0.096675 1.008041 0.522955
v 0.096675 0.872003 0.186203
v 0.096675 0.872003 0.522955
v 0.096675 1.008041 0.186203
v 0.096675 1.008041 0.522955
v 0.213497 4.247945 0.535556
v 0.213497 3.008451 0.535556
v -0.342938 4.247945 0.535556
v -0.342938 3.008451 0.535556
v 0.213497 3.008451 0.220034
v -0.342938 4.247945 0.220034
v 0.213497 4.247945 0.220034
v -0.342938 3.008451 0.220034
v 0.213497 3.943508 0.948165
v 0.213497 3.943508 -0.291330
v -0.342938 3.943508 -0.291330
v -0.342938 3.943508 0.948165
v 0.213497 3.943508 0.535556
v -0.342938 3.943508 0.535556
v 0.213497 3.943508 0.220034
v -0.342938 3.943508 0.220034
v 0.213497 3.332970 0.948165
v 0.213497 3.332970 -0.291330
v -0.342938 3.332970 -0.291330
v 0.213497 3.332970 0.535556
v -0.342938 3.332970 0.535556
v 0.213497 3.332970 0.220034
v -0.342938 3.332970 0.220034
v -0.342938 3.332970 0.948165
v 0.213497 3.008451 -0.035648
v -0.342938 4.247945 -0.035648
v 0.213497 4.247945 -0.035648
v -0.342938 3.008451 -0.035648
v 0.213497 3.943508 -0.035648
v -0.342938 3.943508 -0.035648
v -0.342938 3.332970 -0.035648
v 0.213497 3.332970 -0.035648
v 0.213497 4.247945 0.741861
v -0.342938 3.008451 0.741861
v 0.213497 3.008451 0.741861
v -0.342938 4.247945 0.741861
v -0.342938 3.943508 0.741861
v 0.213497 3.943508 0.741861
v 0.213497 3.332970 0.741861
v -0.342938 3.332970 0.741861
v -0.238195 0.591516 0.522955
v -0.238195 0.591516 -0.447380
v 0.096675 0.591516 -0.447380
v 0.096675 0.591516 0.522955
v 0.096675 0.591516 0.186203
v -0.238195 0.591516 0.186203
v 0.096675 0.344070 0.522955
v 0.096675 0.344070 0.186203
v -0.238195 0.344070 0.186203
v -0.238195 0.344070 0.522955
v -0.238195 0.122869 -0.447380
v 0.096675 0.122869 -0.447380
v 0.096675 0.122869 0.522955
v 0.096675 0.122869 0.186203
v -0.238195 0.122869 0.186203
v -0.238195 0.122869 0.522955
vt 0.899592 0.000416
vt 0.828179 0.000416
vt 0.828179 0.075886
vt 0.899592 0.075886
vt 0.873357 0.718331
vt 0.414297 0.718331
vt 0.414297 0.793801
vt 0.873357 0.793801
vt 0.828179 0.000416
vt 0.899592 0.000416
vt 0.899592 0.075886
vt 0.828179 0.075886
vt 0.744807 0.870102
vt 0.285748 0.870102
vt 0.285748 0.794632
vt 0.744807 0.794632
vt 0.071828 0.999584
vt 0.071828 0.540525
vt 0.000416 0.540525
vt 0.000416 0.999584
vt 0.899592 0.075886
vt 0.899592 0.075886
vt 0.355625 0.226230
vt 0.285748 0.226230
vt 0.285748 0.284917
vt 0.355625 0.284917
vt 0.765568 0.355625
vt 0.765568 0.285748
vt 0.637850 0.285748
vt 0.637850 0.355625
vt 0.070293 0.047769
vt 0.000416 0.047769
vt 0.000416 0.000416
vt 0.070293 0.000416
vt 0.285748 0.579177
vt 0.285748 0.509300
vt 0.413466 0.509300
vt 0.413466 0.579177
vt 0.698798 0.237564
vt 0.571080 0.237564
vt 0.571080 0.284917
vt 0.698798 0.284917
vt 0.509300 0.522896
vt 0.637018 0.522896
vt 0.637018 0.570249
vt 0.509300 0.570249
vt 0.145842 0.381353
vt 0.145842 0.316973
vt 0.000416 0.316973
vt 0.000416 0.381353
vt 0.905042 0.141097
vt 0.905042 0.076717
vt 0.828179 0.076717
vt 0.828179 0.141097
vt 0.431174 0.350128
vt 0.431174 0.285748
vt 0.508469 0.285748
vt 0.508469 0.350128
vt 0.766399 0.381353
vt 0.766399 0.316973
vt 0.843262 0.316973
vt 0.843262 0.381353
vt 0.845056 0.179708
vt 0.845056 0.256571
vt 0.922351 0.256571
vt 0.922351 0.179708
vt 0.823332 0.871927
vt 0.823333 0.794632
vt 0.823333 0.794632
vt 0.823332 0.871927
vt 0.414297 0.509300
vt 0.491160 0.509300
vt 0.491160 0.654726
vt 0.414297 0.654726
vt 0.699630 0.179708
vt 0.699630 0.256571
vt 0.285748 0.350128
vt 0.285748 0.285748
vt 0.223137 0.381353
vt 0.223137 0.316973
vt 0.823333 0.794632
vt 0.900195 0.794632
vt 0.900195 0.871927
vt 0.823332 0.871927
vt 0.285748 0.902158
vt 0.362610 0.902158
vt 0.362610 0.870933
vt 0.285748 0.870933
vt 0.766399 0.285748
vt 0.843262 0.285748
vt 0.223137 0.285748
vt 0.145842 0.285748
vt 0.072659 0.999584
vt 0.072659 0.540525
vt 0.144071 0.540525
vt 0.144071 0.999584
vt 0.828179 0.075886
vt 0.828179 0.075886
vt 0.823333 0.794632
vt 0.823333 0.794632
vt 0.823333 0.794632
vt 0.823332 0.871927
vt 0.823332 0.871927
vt 0.823332 0.871927
vt 0.823332 0.871927
vt 0.823332 0.871927
vt 0.222197 0.897300
vt 0.144903 0.897300
vt 0.144903 0.866075
vt 0.222197 0.866075
vt 0.823333 0.794632
vt 0.823333 0.794632
vt 0.509300 0.403121
vt 0.637018 0.403121
vt 0.637018 0.475543
vt 0.509300 0.475543
vt 0.698798 0.117789
vt 0.571080 0.117789
vt 0.571080 0.190211
vt 0.698798 0.190211
vt 0.070293 0.167543
vt 0.000416 0.167543
vt 0.000416 0.095122
vt 0.070293 0.095122
vt 0.355625 0.047769
vt 0.285748 0.047769
vt 0.285748 0.095122
vt 0.355625 0.095122
vt 0.070293 0.226230
vt 0.000416 0.226230
vt 0.698798 0.059102
vt 0.571080 0.059102
vt 0.509300 0.344434
vt 0.637018 0.344434
vt 0.285748 0.167543
vt 0.355625 0.167543
vt 0.765568 0.711217
vt 0.637850 0.711217
vt 0.637850 0.571080
vt 0.765568 0.571080
vt 0.223137 0.438149
vt 0.145842 0.438149
vt 0.637018 0.571080
vt 0.509300 0.571080
vt 0.509300 0.711217
vt 0.637018 0.711217
vt 0.285748 0.719314
vt 0.413466 0.719314
vt 0.210430 0.047769
vt 0.210430 0.000416
vt 0.765568 0.495762
vt 0.637850 0.495762
vt 0.495762 0.226230
vt 0.495762 0.284917
vt 0.570249 0.226230
vt 0.570249 0.284917
vt 0.765568 0.570249
vt 0.637850 0.570249
vt 0.284917 0.047769
vt 0.284917 0.000416
vt 0.285748 0.793801
vt 0.413466 0.793801
vt 0.284917 0.167543
vt 0.210430 0.167543
vt 0.210430 0.095122
vt 0.284917 0.095122
vt 0.570249 0.047769
vt 0.495762 0.047769
vt 0.495762 0.095122
vt 0.570249 0.095122
vt 0.284917 0.226230
vt 0.210430 0.226230
vt 0.495762 0.167543
vt 0.570249 0.167543
vt 0.284917 0.284917
vt 0.210430 0.284917
vt 0.272621 0.540525
vt 0.272621 0.599211
vt 0.272621 0.671633
vt 0.272621 0.718986
vt 0.144903 0.718986
vt 0.144903 0.671633
vt 0.144903 0.599211
vt 0.144903 0.540525
vt 0.070293 0.284917
vt 0.509300 0.285748
vt 0.637018 0.285748
vt 0.698798 0.000416
vt 0.571080 0.000416
vt 0.000416 0.284917
vt 0.570249 0.000416
vt 0.495762 0.000416
vt 0.827348 0.131524
vt 0.827348 0.059102
vt 0.827348 0.000416
vt 0.699630 0.000416
vt 0.699630 0.059102
vt 0.699630 0.131524
vt 0.699630 0.178877
vt 0.827348 0.178877
vt 0.355625 0.000416
vt 0.285748 0.000416
vt 0.766399 0.438149
vt 0.843262 0.438149
vt 0.431174 0.406924
vt 0.508469 0.406924
vt 0.431174 0.457696
vt 0.508469 0.457696
vt 0.766399 0.488921
vt 0.843262 0.488921
vt 0.223137 0.488921
vt 0.145842 0.488921
vt 0.285748 0.508469
vt 0.285748 0.457696
vt 0.431174 0.508469
vt 0.223137 0.539694
vt 0.145842 0.539694
vt 0.766399 0.539694
vt 0.843262 0.539694
vt 0.508469 0.508469
vt 0.491160 0.706330
vt 0.491160 0.655557
vt 0.414297 0.655557
vt 0.414297 0.706330
vt 0.000416 0.488921
vt 0.000416 0.539694
vt 0.766399 0.540525
vt 0.766399 0.685951
vt 0.843262 0.685951
vt 0.843262 0.540525
vt 0.745639 0.851428
vt 0.745639 0.902200
vt 0.822501 0.902200
vt 0.822501 0.851428
vt 0.822501 0.794632
vt 0.745639 0.794632
vt 0.144903 0.719817
vt 0.221765 0.719817
vt 0.221765 0.865244
vt 0.144903 0.865244
vn 0.0000 -1.0000 0.0000
vn -1.0000 0.0000 0.0000
vn 0.0000 1.0000 0.0000
vn 1.0000 0.0000 0.0000
vn 0.0000 0.0000 -1.0000
vn 0.0000 0.0000 1.0000
usemtl Material
s off
f 6/1/1 1/2/1 4/3/1 8/4/1
f 8/5/2 7/6/2 5/7/2 6/8/2
f 26/9/3 5/10/3 7/11/3 3/12/3
f 1/13/4 26/14/4 3/15/4 4/16/4
f 6/17/5 5/18/5 26/19/5 1/20/5
f 7/11/6 8/4/6 37/21/6 36/22/6
f 80/23/2 76/24/2 13/25/2 61/26/2
f 61/27/5 13/28/5 9/29/5 60/30/5
f 88/31/4 83/32/4 11/33/4 59/34/4
f 59/35/6 11/36/6 15/37/6 62/38/6
f 84/39/1 85/40/1 12/41/1 16/42/1
f 83/43/3 86/44/3 15/45/3 11/46/3
f 96/47/2 28/48/2 20/49/2 92/50/2
f 92/51/5 20/52/5 24/53/5 93/54/5
f 95/55/4 30/56/4 22/57/4 94/58/4
f 94/59/6 22/60/6 18/61/6 91/62/6
f 27/63/1 29/64/1 21/65/1 17/66/1
f 22/67/6 30/68/6 39/69/6 40/70/6
f 24/71/3 20/72/3 28/73/3 30/74/3
f 19/75/1 23/76/1 29/64/1 27/63/1
f 93/77/4 24/78/4 30/56/4 95/55/4
f 91/79/2 18/80/2 28/48/2 96/47/2
f 31/81/3 34/82/3 33/83/3 32/84/3
f 30/85/5 28/86/5 34/87/5 31/88/5
f 18/61/6 22/60/6 32/89/6 33/90/6
f 28/48/2 18/80/2 33/91/2 34/92/2
f 38/93/6 35/94/6 36/95/6 37/96/6
f 4/3/6 3/12/6 35/97/6 38/98/6
f 3/12/6 7/11/6 36/22/6 35/97/6
f 8/4/6 4/3/6 38/98/6 37/21/6
f 39/69/6 41/99/6 45/100/6 43/101/6
f 32/84/6 22/67/6 40/70/6 42/102/6
f 30/68/6 31/81/6 41/99/6 39/69/6
f 31/81/6 32/84/6 42/102/6 41/99/6
f 46/103/6 44/104/6 48/105/6 50/106/6
f 40/70/6 39/69/6 43/101/6 44/104/6
f 42/102/6 40/70/6 44/104/6 46/103/6
f 41/99/6 42/102/6 46/103/6 45/100/6
f 48/107/4 47/108/4 49/109/4 50/110/4
f 45/100/6 46/103/6 50/106/6 49/111/6
f 43/101/6 45/100/6 49/111/6 47/112/6
f 44/104/6 43/101/6 47/112/6 48/105/6
f 57/113/3 56/114/3 53/115/3 51/116/3
f 58/117/1 55/118/1 52/119/1 54/120/1
f 65/121/4 57/122/4 51/123/4 63/124/4
f 87/125/2 86/126/2 53/127/2 64/128/2
f 79/129/4 77/130/4 57/122/4 65/121/4
f 78/131/1 75/132/1 55/118/1 58/117/1
f 77/133/3 76/134/3 56/114/3 57/113/3
f 64/128/2 53/127/2 56/135/2 66/136/2
f 81/137/6 82/138/6 79/139/6 80/140/6
f 100/141/2 91/79/2 96/47/2 99/142/2
f 87/143/5 88/144/5 89/145/5 90/146/5
f 67/147/6 59/35/6 62/38/6 74/148/6
f 89/149/4 88/31/4 59/34/4 67/150/4
f 69/151/5 61/27/5 60/30/5 68/152/5
f 81/153/2 80/23/2 61/26/2 69/154/2
f 78/155/2 81/153/2 69/154/2 14/156/2
f 14/157/5 69/151/5 68/152/5 10/158/5
f 85/159/4 89/149/4 67/150/4 12/160/4
f 12/161/6 67/147/6 74/148/6 16/162/6
f 55/163/4 72/164/4 70/165/4 52/166/4
f 84/167/2 90/168/2 71/169/2 54/170/2
f 75/171/4 82/172/4 72/164/4 55/163/4
f 54/170/2 71/169/2 73/173/2 58/174/2
f 10/175/4 68/176/4 82/172/4 75/171/4
f 58/174/2 73/173/2 81/153/2 78/155/2
f 81/177/3 73/178/3 71/179/3 90/180/3 89/181/3 70/182/3 72/183/3 82/184/3
f 68/176/4 60/185/4 79/129/4 82/172/4
f 9/186/3 13/187/3 76/134/3 77/133/3
f 14/188/1 10/189/1 75/132/1 78/131/1
f 60/185/4 9/190/4 77/130/4 79/129/4
f 66/136/2 56/135/2 76/24/2 80/23/2
f 16/191/2 74/192/2 90/168/2 84/167/2
f 52/166/4 70/165/4 89/149/4 85/159/4
f 64/193/1 66/194/1 80/195/1 79/196/1 65/197/1 63/198/1 88/199/1 87/200/1
f 74/192/2 62/201/2 87/125/2 90/168/2
f 62/201/2 15/202/2 86/126/2 87/125/2
f 51/116/3 53/115/3 86/44/3 83/43/3
f 54/120/1 52/119/1 85/40/1 84/39/1
f 63/124/4 51/123/4 83/32/4 88/31/4
f 97/203/6 94/59/6 91/62/6 100/204/6
f 98/205/4 95/55/4 94/58/4 97/206/4
f 104/207/4 98/205/4 97/206/4 103/208/4
f 103/209/6 97/203/6 100/204/6 106/210/6
f 106/211/2 100/141/2 99/142/2 105/212/2
f 23/213/4 102/214/4 104/207/4 29/215/4
f 17/216/2 106/211/2 105/212/2 27/217/2
f 21/218/6 103/209/6 106/210/6 17/219/6
f 29/215/4 104/207/4 103/208/4 21/220/4
f 19/221/5 101/222/5 102/223/5 23/224/5
f 27/217/2 105/212/2 101/225/2 19/226/2
f 93/227/1 95/228/1 96/229/1 92/230/1
f 98/231/5 104/232/5 105/233/5 99/234/5 96/235/5 95/236/5
f 102/237/3 101/238/3 105/239/3 104/240/3
l 11 25
