# This file uses centimeters as units for non-parametric coordinates.

mtllib Possible-Enemybyknight-fixedowo.mtl
g default
v 0.000000 -1.384006 -0.646884
v 0.000000 0.000000 0.000000
v 0.000000 -1.354820 0.005657
v 0.000000 0.076689 -0.653918
v 0.000000 -0.641521 0.098443
v 0.000000 -0.691484 -0.698140
v 0.000000 -0.389280 0.059736
v 0.000000 -0.389445 -0.680752
v -0.246487 -1.339672 -0.657833
v -0.246487 -1.339672 -0.017029
v -0.661747 0.144884 -0.050020
v -0.760722 0.169562 -0.512794
v -0.476002 -1.334263 -0.309155
v -0.706922 0.180369 -0.196278
v -0.483759 -0.636539 -0.000885
v -0.582313 -0.609977 -0.582754
v -0.679659 -0.610378 -0.301306
v -0.486416 -2.765319 -0.226814
v -0.330604 -2.768991 -0.463524
v -0.160826 -2.799089 -0.456091
v -0.330604 -2.768991 -0.025838
v -0.165673 -2.779275 -0.013094
v -0.526434 -0.367030 -0.017332
v -0.690863 -0.288261 -0.291614
v -0.686443 -0.297742 -0.527098
v -1.522731 -0.142075 -0.064570
v -1.443152 -0.106816 -0.078271
v -1.601158 -0.195941 -0.035588
v -1.240427 -0.097762 0.081772
v -1.205342 -0.181669 0.094205
v -1.384974 -0.353409 0.078776
v -1.510717 -0.213449 0.443358
v -1.471478 -0.118033 0.472008
v -1.519567 -0.257562 0.408588
v -1.342129 -0.116806 0.514658
v -1.220829 -0.263829 0.558434
v -1.254292 -0.301222 0.523834
v 0.000000 0.038345 -0.326959
v -0.706922 0.180369 -0.196278
v 0.000000 -1.384006 -0.646884
v 0.000000 0.000000 0.000000
v -0.000000 -1.354820 0.005657
v -0.000000 0.076689 -0.653918
v 0.000000 -0.641521 0.098443
v 0.000000 -0.691484 -0.698140
v 0.000000 -0.389280 0.059736
v 0.000000 -0.389445 -0.680752
v 0.246487 -1.339672 -0.657833
v 0.246487 -1.339672 -0.017029
v 0.661747 0.144884 -0.050020
v 0.760722 0.169562 -0.512794
v 0.476002 -1.334263 -0.309155
v 0.706922 0.180369 -0.196278
v 0.483759 -0.636539 -0.000885
v 0.582313 -0.609977 -0.582754
v 0.679659 -0.610378 -0.301306
v 0.486416 -2.765319 -0.226814
v 0.330604 -2.768991 -0.463524
v 0.160826 -2.799089 -0.456091
v 0.330604 -2.768991 -0.025838
v 0.165673 -2.779275 -0.013094
v 0.526434 -0.367030 -0.017332
v 0.690863 -0.288261 -0.291614
v 0.686443 -0.297742 -0.527098
v 1.522731 -0.142075 -0.064570
v 1.443152 -0.106816 -0.078271
v 1.601158 -0.195941 -0.035588
v 1.240427 -0.097762 0.081772
v 1.205342 -0.181669 0.094205
v 1.384974 -0.353409 0.078776
v 1.510717 -0.213449 0.443358
v 1.471478 -0.118033 0.472008
v 1.519567 -0.257562 0.408588
v 1.342129 -0.116806 0.514658
v 1.220829 -0.263829 0.558434
v 1.254292 -0.301222 0.523834
v -0.000000 0.038345 -0.326959
v 0.706922 0.180369 -0.196278
vn -0.196599 0.027600 -0.980095
vn -0.196599 0.027600 -0.980095
vn -0.196599 0.027600 -0.980095
vn -0.196599 0.027600 -0.980095
vn -0.239792 -0.961067 0.137295
vn -0.239792 -0.961067 0.137295
vn -0.239792 -0.961067 0.137295
vn -0.239792 -0.961067 0.137295
vn -0.094299 0.087499 0.991691
vn -0.094299 0.087499 0.991691
vn -0.094299 0.087499 0.991691
vn -0.094299 0.087499 0.991691
vn -0.850298 -0.290599 -0.438799
vn -0.850298 -0.290599 -0.438799
vn -0.850298 -0.290599 -0.438799
vn -0.850298 -0.290599 -0.438799
vn 0.180650 0.981348 0.065737
vn 0.181853 0.980950 0.068312
vn 0.169696 0.982677 0.074498
vn 0.169696 0.982677 0.074498
vn -0.307006 0.906318 0.290406
vn -0.307006 0.906318 0.290406
vn -0.307006 0.906318 0.290406
vn -0.307006 0.906318 0.290406
vn -0.162896 -0.099897 0.981573
vn -0.162896 -0.099897 0.981573
vn -0.162896 -0.099897 0.981573
vn -0.162896 -0.099897 0.981573
vn -0.790109 -0.255003 0.557406
vn -0.790109 -0.255003 0.557406
vn -0.790109 -0.255003 0.557406
vn -0.790109 -0.255003 0.557406
vn -0.126804 -0.013800 -0.991832
vn -0.126804 -0.013800 -0.991832
vn -0.126804 -0.013800 -0.991832
vn -0.126804 -0.013800 -0.991832
vn 0.019301 -0.135807 -0.990547
vn 0.019301 -0.135807 -0.990547
vn 0.019301 -0.135807 -0.990547
vn 0.019301 -0.135807 -0.990547
vn -0.090499 -0.995785 0.014900
vn -0.090499 -0.995785 0.014900
vn -0.090499 -0.995785 0.014900
vn -0.090499 -0.995785 0.014900
vn -0.090499 -0.995785 0.014900
vn -0.789270 0.040998 0.612676
vn -0.789270 0.040998 0.612676
vn -0.789270 0.040998 0.612676
vn -0.789270 0.040998 0.612676
vn -0.835179 -0.025499 -0.549386
vn -0.835179 -0.025499 -0.549386
vn -0.835179 -0.025499 -0.549386
vn -0.835179 -0.025499 -0.549386
vn 0.993433 -0.113304 0.015901
vn 0.993433 -0.113304 0.015901
vn 0.993433 -0.113304 0.015901
vn 0.993433 -0.113304 0.015901
vn -0.077300 -0.004300 0.996999
vn -0.077300 -0.004300 0.996999
vn -0.077300 -0.004300 0.996999
vn -0.077300 -0.004300 0.996999
vn -0.969534 -0.156906 -0.188107
vn -0.969534 -0.156906 -0.188107
vn -0.969534 -0.156906 -0.188107
vn -0.969534 -0.156906 -0.188107
vn -0.169895 0.089697 0.981372
vn -0.169895 0.089697 0.981372
vn -0.169895 0.089697 0.981372
vn -0.169895 0.089697 0.981372
vn -0.850917 -0.071501 0.520411
vn -0.850917 -0.071501 0.520411
vn -0.850917 -0.071501 0.520411
vn -0.850917 -0.071501 0.520411
vn -0.196499 0.082899 -0.976993
vn -0.196499 0.082899 -0.976993
vn -0.196499 0.082899 -0.976993
vn -0.196499 0.082899 -0.976993
vn -0.420394 -0.902787 0.090799
vn -0.420394 -0.902787 0.090799
vn -0.420394 -0.902787 0.090799
vn -0.420394 -0.902787 0.090799
vn 0.796368 0.580577 0.169493
vn 0.796368 0.580577 0.169493
vn 0.796368 0.580577 0.169493
vn 0.796368 0.580577 0.169493
vn -0.391787 0.919669 -0.026699
vn -0.391787 0.919669 -0.026699
vn -0.391787 0.919669 -0.026699
vn -0.391787 0.919669 -0.026699
vn 0.300409 -0.860425 0.411612
vn 0.300409 -0.860425 0.411612
vn 0.300409 -0.860425 0.411612
vn 0.300409 -0.860425 0.411612
vn -0.473400 -0.349600 -0.808500
vn -0.473400 -0.349600 -0.808500
vn -0.473400 -0.349600 -0.808500
vn -0.473400 -0.349600 -0.808500
vn 0.048202 0.385517 0.921441
vn 0.048202 0.385517 0.921441
vn 0.048202 0.385517 0.921441
vn 0.048202 0.385517 0.921441
vn -0.046002 0.998636 0.024701
vn -0.046002 0.998636 0.024701
vn -0.046002 0.998636 0.024701
vn -0.046002 0.998636 0.024701
vn -0.741600 0.669600 0.040800
vn -0.741600 0.669600 0.040800
vn -0.741600 0.669600 0.040800
vn -0.741600 0.669600 0.040800
vn 0.709311 -0.695811 -0.112802
vn 0.709311 -0.695811 -0.112802
vn 0.709311 -0.695811 -0.112802
vn 0.709311 -0.695811 -0.112802
vn -0.741383 0.650785 0.163796
vn -0.741383 0.650785 0.163796
vn -0.741383 0.650785 0.163796
vn -0.741383 0.650785 0.163796
vn -0.383902 -0.216201 0.897706
vn -0.383902 -0.216201 0.897706
vn -0.383902 -0.216201 0.897706
vn -0.383902 -0.216201 0.897706
vn -0.383902 -0.216201 0.897706
vn -0.383902 -0.216201 0.897706
vn 0.169696 0.982677 0.074498
vn 0.169696 0.982677 0.074498
vn 0.196599 0.027600 -0.980095
vn 0.196599 0.027600 -0.980095
vn 0.196599 0.027600 -0.980095
vn 0.196599 0.027600 -0.980095
vn 0.239792 -0.961067 0.137295
vn 0.239792 -0.961067 0.137295
vn 0.239792 -0.961067 0.137295
vn 0.239792 -0.961067 0.137295
vn 0.094299 0.087499 0.991691
vn 0.094299 0.087499 0.991691
vn 0.094299 0.087499 0.991691
vn 0.094299 0.087499 0.991691
vn 0.850298 -0.290599 -0.438799
vn 0.850298 -0.290599 -0.438799
vn 0.850298 -0.290599 -0.438799
vn 0.850298 -0.290599 -0.438799
vn -0.180650 0.981348 0.065737
vn -0.169696 0.982677 0.074498
vn -0.169696 0.982677 0.074498
vn -0.181853 0.980950 0.068312
vn 0.307006 0.906318 0.290406
vn 0.307006 0.906318 0.290406
vn 0.307006 0.906318 0.290406
vn 0.307006 0.906318 0.290406
vn 0.162896 -0.099897 0.981573
vn 0.162896 -0.099897 0.981573
vn 0.162896 -0.099897 0.981573
vn 0.162896 -0.099897 0.981573
vn 0.790109 -0.255003 0.557406
vn 0.790109 -0.255003 0.557406
vn 0.790109 -0.255003 0.557406
vn 0.790109 -0.255003 0.557406
vn 0.126804 -0.013800 -0.991832
vn 0.126804 -0.013800 -0.991832
vn 0.126804 -0.013800 -0.991832
vn 0.126804 -0.013800 -0.991832
vn -0.019301 -0.135807 -0.990547
vn -0.019301 -0.135807 -0.990547
vn -0.019301 -0.135807 -0.990547
vn -0.019301 -0.135807 -0.990547
vn 0.090499 -0.995785 0.014900
vn 0.090499 -0.995785 0.014900
vn 0.090499 -0.995785 0.014900
vn 0.090499 -0.995785 0.014900
vn 0.090499 -0.995785 0.014900
vn 0.789270 0.040998 0.612676
vn 0.789270 0.040998 0.612676
vn 0.789270 0.040998 0.612676
vn 0.789270 0.040998 0.612676
vn 0.835179 -0.025499 -0.549386
vn 0.835179 -0.025499 -0.549386
vn 0.835179 -0.025499 -0.549386
vn 0.835179 -0.025499 -0.549386
vn -0.993433 -0.113304 0.015901
vn -0.993433 -0.113304 0.015901
vn -0.993433 -0.113304 0.015901
vn -0.993433 -0.113304 0.015901
vn 0.077300 -0.004300 0.996999
vn 0.077300 -0.004300 0.996999
vn 0.077300 -0.004300 0.996999
vn 0.077300 -0.004300 0.996999
vn 0.969534 -0.156906 -0.188107
vn 0.969534 -0.156906 -0.188107
vn 0.969534 -0.156906 -0.188107
vn 0.969534 -0.156906 -0.188107
vn 0.169895 0.089697 0.981372
vn 0.169895 0.089697 0.981372
vn 0.169895 0.089697 0.981372
vn 0.169895 0.089697 0.981372
vn 0.850917 -0.071501 0.520411
vn 0.850917 -0.071501 0.520411
vn 0.850917 -0.071501 0.520411
vn 0.850917 -0.071501 0.520411
vn 0.196499 0.082899 -0.976993
vn 0.196499 0.082899 -0.976993
vn 0.196499 0.082899 -0.976993
vn 0.196499 0.082899 -0.976993
vn 0.420394 -0.902787 0.090799
vn 0.420394 -0.902787 0.090799
vn 0.420394 -0.902787 0.090799
vn 0.420394 -0.902787 0.090799
vn -0.796368 0.580577 0.169493
vn -0.796368 0.580577 0.169493
vn -0.796368 0.580577 0.169493
vn -0.796368 0.580577 0.169493
vn 0.391787 0.919669 -0.026699
vn 0.391787 0.919669 -0.026699
vn 0.391787 0.919669 -0.026699
vn 0.391787 0.919669 -0.026699
vn -0.300409 -0.860425 0.411612
vn -0.300409 -0.860425 0.411612
vn -0.300409 -0.860425 0.411612
vn -0.300409 -0.860425 0.411612
vn 0.473400 -0.349600 -0.808500
vn 0.473400 -0.349600 -0.808500
vn 0.473400 -0.349600 -0.808500
vn 0.473400 -0.349600 -0.808500
vn -0.048202 0.385517 0.921441
vn -0.048202 0.385517 0.921441
vn -0.048202 0.385517 0.921441
vn -0.048202 0.385517 0.921441
vn 0.046002 0.998636 0.024701
vn 0.046002 0.998636 0.024701
vn 0.046002 0.998636 0.024701
vn 0.046002 0.998636 0.024701
vn 0.741600 0.669600 0.040800
vn 0.741600 0.669600 0.040800
vn 0.741600 0.669600 0.040800
vn 0.741600 0.669600 0.040800
vn -0.709311 -0.695811 -0.112802
vn -0.709311 -0.695811 -0.112802
vn -0.709311 -0.695811 -0.112802
vn -0.709311 -0.695811 -0.112802
vn 0.741383 0.650785 0.163796
vn 0.741383 0.650785 0.163796
vn 0.741383 0.650785 0.163796
vn 0.741383 0.650785 0.163796
vn 0.383902 -0.216201 0.897706
vn 0.383902 -0.216201 0.897706
vn 0.383902 -0.216201 0.897706
vn 0.383902 -0.216201 0.897706
vn 0.383902 -0.216201 0.897706
vn 0.383902 -0.216201 0.897706
vn -0.169696 0.982677 0.074498
vn -0.169696 0.982677 0.074498
s off
g initialShadingGroup Mesh2
f 8//1 25//2 12//3 4//4
f 23//5 29//6 30//7 24//8
f 7//9 2//10 11//11 23//12
f 9//13 13//14 17//15 16//16
s 1
f 38//17 39//18 11//19 2//20
s off
f 14//21 26//22 27//23 11//24
f 3//25 5//26 15//27 10//28
f 13//29 10//30 15//31 17//32
f 1//33 9//34 16//35 6//36
f 1//37 20//38 19//39 9//40
f 18//41 19//42 20//43 22//44 21//45
f 13//46 18//47 21//48 10//49
f 9//50 19//51 18//52 13//53
f 3//54 22//55 20//56 1//57
f 10//58 21//59 22//60 3//61
f 16//62 17//63 24//64 25//65
f 5//66 7//67 23//68 15//69
f 17//70 15//71 23//72 24//73
f 6//74 16//75 25//76 8//77
f 31//78 37//79 34//80 28//81
f 29//82 35//83 36//84 30//85
f 12//86 28//87 26//88 14//89
f 24//90 30//91 31//92 25//93
f 25//94 31//95 28//96 12//97
f 11//98 27//99 29//100 23//101
f 27//102 33//103 35//104 29//105
f 26//106 32//107 33//108 27//109
f 30//110 36//111 37//112 31//113
f 28//114 34//115 32//116 26//117
f 32//118 34//119 37//120 36//121 35//122 33//123
s 1
f 12//124 39//18 38//17 4//125
s off
f 47//126 43//127 51//128 64//129
f 62//130 63//131 69//132 68//133
f 46//134 62//135 50//136 41//137
f 48//138 55//139 56//140 52//141
s 2
f 77//142 41//143 50//144 78//145
s off
f 53//146 50//147 66//148 65//149
f 42//150 49//151 54//152 44//153
f 52//154 56//155 54//156 49//157
f 40//158 45//159 55//160 48//161
f 40//162 48//163 58//164 59//165
f 57//166 60//167 61//168 59//169 58//170
f 52//171 49//172 60//173 57//174
f 48//175 52//176 57//177 58//178
f 42//179 40//180 59//181 61//182
f 49//183 42//184 61//185 60//186
f 55//187 64//188 63//189 56//190
f 44//191 54//192 62//193 46//194
f 56//195 63//196 62//197 54//198
f 45//199 47//200 64//201 55//202
f 70//203 67//204 73//205 76//206
f 68//207 69//208 75//209 74//210
f 51//211 53//212 65//213 67//214
f 63//215 64//216 70//217 69//218
f 64//219 51//220 67//221 70//222
f 50//223 62//224 68//225 66//226
f 66//227 68//228 74//229 72//230
f 65//231 66//232 72//233 71//234
f 69//235 70//236 76//237 75//238
f 67//239 65//240 71//241 73//242
f 71//243 72//244 74//245 75//246 76//247 73//248
s 2
f 51//249 43//250 77//142 78//145
